<?xml version="1.0" standalone="no"?>
<!DOCTYPE svg PUBLIC "-//W3C//DTD SVG 20010904//EN"
 "http://www.w3.org/TR/2001/REC-SVG-20010904/DTD/svg10.dtd">
<svg version="1.0" xmlns="http://www.w3.org/2000/svg"
 width="500.000000pt" height="500.000000pt" viewBox="0 0 500.000000 500.000000"
 preserveAspectRatio="xMidYMid meet">

<g transform="translate(0.000000,500.000000) scale(0.100000,-0.100000)"
fill="#000000" stroke="none">
<path d="M2318 4993 c7 -3 16 -2 19 1 4 3 -2 6 -13 5 -11 0 -14 -3 -6 -6z"/>
<path d="M2668 4993 c7 -3 16 -2 19 1 4 3 -2 6 -13 5 -11 0 -14 -3 -6 -6z"/>
<path d="M2405 4371 c-53 -24 -111 -90 -126 -143 -6 -24 -9 -69 -6 -100 l5
-57 -31 -5 c-18 -3 -72 -10 -122 -16 -269 -35 -576 -133 -840 -268 -106 -55
-125 -72 -125 -112 0 -34 41 -80 71 -80 9 0 82 32 160 70 79 39 149 70 156 70
10 0 13 -51 13 -228 l0 -229 -26 -24 c-37 -34 -54 -72 -54 -119 0 -48 11 -73
52 -116 l29 -31 -3 -429 -3 -429 -229 -304 c-126 -168 -234 -317 -240 -332 -7
-19 -7 -35 1 -51 6 -13 121 -170 257 -351 249 -330 253 -335 306 -327 8 1 24
9 34 18 29 26 493 647 501 670 3 12 1 32 -6 44 -6 13 -114 161 -240 329 l-229
306 0 428 0 428 34 38 c60 66 60 152 0 215 l-34 37 2 261 3 261 40 13 c147 50
397 97 571 108 l104 7 0 -165 0 -165 -26 -24 c-48 -44 -67 -123 -45 -182 5
-13 23 -37 40 -53 l31 -29 0 -171 0 -171 -57 -12 c-173 -37 -344 -172 -421
-331 -132 -272 -84 -564 125 -767 183 -178 487 -222 732 -106 97 46 231 173
231 220 0 46 -24 70 -97 94 -154 50 -244 116 -308 223 -74 127 -89 268 -41
399 15 42 43 96 62 119 56 71 38 135 -43 153 l-33 7 0 172 0 173 26 24 c36 33
54 72 54 114 0 43 -32 110 -60 125 -19 10 -20 21 -20 180 l0 170 45 0 c129 0
455 -56 600 -102 l70 -23 3 -419 2 -420 -29 -30 c-16 -17 -34 -41 -40 -53 -26
-51 -3 -144 45 -182 l24 -19 0 -494 0 -494 -34 -39 c-34 -38 -81 -124 -106
-196 l-13 -37 -81 -7 c-133 -11 -198 -41 -232 -107 -34 -66 5 -170 105 -280
l59 -64 -14 -60 c-28 -119 -15 -219 35 -271 20 -21 31 -23 114 -23 87 1 96 3
162 38 l69 37 71 -35 c60 -30 82 -35 155 -38 83 -4 86 -3 112 25 47 49 55 166
22 299 -5 19 6 37 53 88 192 210 154 359 -101 388 l-95 12 -25 82 c-17 52 -41
101 -66 135 l-40 53 0 491 0 492 26 24 c72 66 72 171 0 238 l-26 24 0 389 c0
281 3 388 11 388 6 0 79 -32 161 -72 l149 -71 33 16 c42 20 56 65 32 102 -30
46 -276 163 -501 239 -170 58 -313 88 -567 121 -45 6 -47 7 -38 31 37 96 -30
236 -132 278 -50 21 -143 20 -193 -3z m149 -152 c54 -43 21 -139 -49 -139 -71
0 -105 90 -51 137 34 28 65 29 100 2z m-84 -1415 c0 -4 -12 -39 -26 -78 -35
-94 -43 -231 -20 -331 43 -182 163 -340 320 -421 l79 -41 -47 -28 c-144 -84
-350 -87 -500 -7 -138 73 -246 253 -246 408 0 59 30 186 58 243 34 69 98 140
164 182 73 47 218 95 218 73z m-467 -1348 c-19 -31 -367 -486 -372 -486 -6 1
-363 475 -369 491 -2 4 81 120 183 259 l187 251 189 -252 c104 -138 186 -257
182 -263z m1422 -73 c13 -52 31 -103 40 -113 14 -15 37 -19 140 -21 68 -2 127
-7 131 -12 13 -13 -18 -57 -103 -148 -46 -49 -83 -95 -83 -103 0 -8 9 -52 20
-98 24 -100 25 -138 5 -138 -8 0 -60 24 -116 52 l-101 53 -36 -21 c-21 -11
-59 -35 -87 -52 -27 -17 -65 -35 -84 -38 l-34 -7 7 57 c3 32 15 83 26 114 11
31 20 65 20 75 0 10 -37 57 -82 105 -85 90 -117 136 -104 149 4 5 62 10 129
11 90 3 126 8 139 19 9 8 29 51 43 96 28 83 49 131 68 155 15 20 34 -21 62
-135z"/>
<path d="M1 2674 c0 -11 3 -14 6 -6 3 7 2 16 -1 19 -3 4 -6 -2 -5 -13z"/>
<path d="M2 2320 c0 -14 2 -19 5 -12 2 6 2 18 0 25 -3 6 -5 1 -5 -13z"/>
<path d="M2748 3 c7 -3 16 -2 19 1 4 3 -2 6 -13 5 -11 0 -14 -3 -6 -6z"/>
</g>
</svg>
